:SAMPLES-PER-SECOND 30
:FULLY-SPECIFIED
:DEGREES
16
root  72.1082 40.4908 -3.02625 -167.983 -87.6191 167.395
RightUpLeg  1.98554 -8.68601 -7.46931
RightLeg  2.59685 0.167011 3.11671
RightFoot  -2.24763 -0.1565 1.76612
RightToes  1.74622e-010 0 -3.6325e-017
Spine  -0.707923 -0.596689 1.40732
Spine1  7.37385 -0.200773 -1.85764
HEad  -5.09739 3.75996 -1.06354
LeftShoulder1  1.4938 -2.97838 -16.189
LeftArm  -21.1342 9.31489 -1.20167
LeftForeArm  12.5817 -10.6751 -1.70655
LeftHand  -0.244104 0.0205437 5.32207
RightShoulder  1.15618 2.05757 13.8766
RightArm  -24.1214 -2.77031 2.80553
RightForeArm  -8.67545 11.4916 4.35424
RightHand  -1.18431 2.96816 -16.5852
LeftUpLeg  2.67693 5.74079 4.39237
LeftLeg  1.68757 9.3102 -3.60922
LeftFoot  -3.17066 0.0834962 -0.911091
LeftToes  1.00041e-010 1.90862e-010 2.54823e-011
17
root  72.127 40.4857 -2.99443 -169.044 -87.4992 168.396
RightUpLeg  1.95867 -8.70946 -7.50568
RightLeg  2.67235 0.280197 3.10722
RightFoot  -2.24364 -0.162958 1.86781
RightToes  1.74622e-010 0 -3.6325e-017
Spine  -0.569776 -0.535357 1.6187
Spine1  7.68662 -0.090724 -2.02344
HEad  -4.29344 4.49524 -0.100685
LeftShoulder1  1.94031 -4.00104 -19.2756
LeftArm  -22.1912 10.9879 -1.85833
LeftForeArm  14.5268 -15.1074 -2.22278
LeftHand  -0.244104 0.0205437 5.32207
RightShoulder  1.51433 3.01521 16.5597
RightArm  -22.4332 -4.63635 4.07809
RightForeArm  -9.14086 14.9664 4.81017
RightHand  -1.21247 2.90679 -17.0879
LeftUpLeg  2.60437 5.7409 4.35757
LeftLeg  1.94014 9.45982 -3.56537
LeftFoot  -3.31437 0.0771187 -0.814759
LeftToes  1.00041e-010 1.90862e-010 2.54823e-011
18
root  72.1389 40.4846 -2.94633 -170.531 -87.1217 169.81
RightUpLeg  1.92718 -8.72203 -7.58005
RightLeg  2.70258 0.692941 3.07802
RightFoot  -2.19438 -0.167238 1.93663
RightToes  1.74622e-010 0 -3.6325e-017
Spine  -0.619038 -0.42415 1.90244
Spine1  8.41937 0.0816148 -2.23064
HEad  -4.4236 4.43673 -0.405911
LeftShoulder1  2.33652 -4.53295 -22.7234
LeftArm  -23.5442 12.0915 -3.18738
LeftForeArm  17.7439 -19.3348 -3.02972
LeftHand  -0.244104 0.0205437 5.32207
RightShoulder  1.9535 4.06633 19.346
RightArm  -19.9471 -6.34859 6.00032
RightForeArm  -9.01346 18.1789 5.05498
RightHand  -1.19912 2.82474 -17.0632
LeftUpLeg  2.65991 5.72582 4.27135
LeftLeg  2.04894 9.86608 -3.54653
LeftFoot  -3.3846 0.0709949 -0.733658
LeftToes  1.00041e-010 1.90862e-010 2.54823e-011
19
root  72.1478 40.4881 -2.8838 -170.509 -86.8945 169.761
RightUpLeg  1.93679 -8.75117 -7.7047
RightLeg  2.6038 1.00707 3.0428
RightFoot  -2.09602 -0.169353 1.97156
RightToes  1.74622e-010 0 -3.6325e-017
Spine  -0.993465 -0.368495 2.27896
Spine1  9.58538 0.243376 -2.60595
HEad  -4.49159 4.26651 -0.683206
LeftShoulder1  2.74313 -4.95912 -26.1913
LeftArm  -24.6654 12.5142 -5.32454
LeftForeArm  21.0133 -22.4851 -3.68146
LeftHand  -0.244104 0.0205437 5.32207
RightShoulder  2.501 5.19866 22.4839
RightArm  -17.1387 -7.9895 8.19961
RightForeArm  -8.78666 20.757 5.1795
RightHand  -1.07111 2.3171 -16.2451
LeftUpLeg  2.70024 5.66791 4.12331
LeftLeg  2.02558 10.148 -3.55645
LeftFoot  -3.34362 0.0667364 -0.684992
LeftToes  1.00041e-010 1.90862e-010 2.54823e-011
20
root  72.1553 40.4905 -2.81995 -169.056 -87.0928 168.417
RightUpLeg  1.9122 -8.75569 -7.79116
RightLeg  2.43331 0.799386 2.97975
RightFoot  -1.97475 -0.174601 2.05351
RightToes  1.74622e-010 0 -3.6325e-017
Spine  -1.60412 -0.450844 2.53833
Spine1  10.7595 0.236988 -2.86402
HEad  -4.18364 3.65286 -1.0084
LeftShoulder1  3.45554 -6.07553 -29.936
LeftArm  -24.7811 13.0927 -7.32158
LeftForeArm  22.5653 -24.3768 -4.03091
LeftHand  -0.244104 0.0205437 5.32207
RightShoulder  3.12397 6.26585 25.8966
RightArm  -14.3748 -9.2025 10.6114
RightForeArm  -8.26478 21.876 5.23582
RightHand  -0.93115 1.67087 -15.4241
LeftUpLeg  2.48814 5.60637 3.98629
LeftLeg  2.08656 10.0331 -3.58237
LeftFoot  -3.2588 0.0605296 -0.607836
LeftToes  1.00041e-010 1.90862e-010 2.54823e-011
21
root  72.1598 40.4906 -2.76367 -167.376 -87.4792 166.922
RightUpLeg  1.8056 -8.70786 -7.78997
RightLeg  2.33956 0.303506 2.88724
RightFoot  -1.88584 -0.177094 2.08988
RightToes  1.74622e-010 0 -3.6325e-017
Spine  -2.1222 -0.632492 2.46012
Spine1  11.5359 -0.0104757 -2.61229
HEad  -3.22589 3.36179 -1.56387
LeftShoulder1  4.51038 -7.69503 -34.1828
LeftArm  -23.4588 14.0372 -8.76134
LeftForeArm  22.0931 -25.2076 -4.22896
LeftHand  -0.244104 0.0205437 5.32207
RightShoulder  3.77378 7.20388 29.2667
RightArm  -11.4802 -9.66434 13.419
RightForeArm  -7.28169 21.1609 5.20908
RightHand  -0.882748 1.52037 -14.9463
LeftUpLeg  2.09744 5.60622 3.92743
LeftLeg  2.32011 9.70102 -3.63273
LeftFoot  -3.20768 0.0502924 -0.468184
LeftToes  1.00041e-010 1.90862e-010 2.54823e-011
22
root  72.1634 40.4899 -2.70699 -166.173 -87.7354 165.794
RightUpLeg  1.76021 -8.67121 -7.80319
RightLeg  2.32571 0.0211776 2.81004
RightFoot  -1.85603 -0.170113 1.97512
RightToes  1.74622e-010 0 -3.6325e-017
Spine  -2.23846 -0.806856 2.15688
Spine1  11.8963 -0.353121 -2.01125
HEad  -1.83691 3.98322 -2.40946
LeftShoulder1  5.59372 -9.03113 -38.4468
LeftArm  -20.5809 14.546 -10.4265
LeftForeArm  20.9935 -24.9024 -4.2192
LeftHand  -0.244104 0.0205437 5.32207
RightShoulder  4.45877 8.07477 32.5654
RightArm  -9.06896 -9.76623 16.4886
RightForeArm  -5.69627 19.2574 5.30584
RightHand  -0.794144 1.35803 -13.7505
LeftUpLeg  1.87608 5.62755 3.88484
LeftLeg  2.50868 9.46979 -3.69412
LeftFoot  -3.16127 0.040147 -0.328446
LeftToes  1.00041e-010 1.90862e-010 2.54823e-011
23
root  72.1668 40.4887 -2.63965 -164.387 -87.8587 163.941
RightUpLeg  1.85477 -8.71266 -7.93637
RightLeg  2.30533 -0.0470132 2.77526
RightFoot  -1.8418 -0.162511 1.84535
RightToes  1.74622e-010 0 -3.6325e-017
Spine  -1.99355 -0.882147 1.91865
Spine1  12.0142 -0.54253 -1.60923
HEad  -0.310841 4.64005 -3.07936
LeftShoulder1  6.44911 -9.8838 -41.8023
LeftArm  -16.8229 14.2612 -13.2032
LeftForeArm  20.4765 -23.3322 -3.93506
LeftHand  -0.244104 0.0205437 5.32207
RightShoulder  5.13558 8.78219 35.828
RightArm  -8.22887 -10.0894 19.6809
RightForeArm  -3.35693 16.9459 5.63238
RightHand  -0.583801 0.53693 -11.4974
LeftUpLeg  1.94626 5.57145 3.74805
LeftLeg  2.43353 9.4217 -3.73346
LeftFoot  -3.06511 0.0324666 -0.22385
LeftToes  1.00041e-010 1.90862e-010 2.54823e-011
24
root  72.1628 40.4872 -2.56917 -162.082 -87.9273 161.63
RightUpLeg  1.8555 -8.79319 -8.10864
RightLeg  2.34585 -0.153889 2.75179
RightFoot  -1.81832 -0.163015 1.83471
RightToes  1.74622e-010 0 -3.6325e-017
Spine  -1.80612 -0.848677 1.78874
Spine1  12.0606 -0.528132 -1.51198
HEad  1.29413 4.76272 -3.34619
LeftShoulder1  7.04569 -10.4804 -43.8454
LeftArm  -13.5694 13.8348 -17.1634
LeftForeArm  20.4841 -20.996 -3.67286
LeftHand  -0.244104 0.0205437 5.32207
RightShoulder  5.67894 9.18601 38.6857
RightArm  -8.88493 -10.5943 23.4616
RightForeArm  0.0460992 14.2465 6.02638
RightHand  -0.413165 -0.296704 -9.4642
LeftUpLeg  2.00718 5.46462 3.55531
LeftLeg  2.26257 9.49204 -3.76002
LeftFoot  -2.99667 0.024008 -0.10234
LeftToes  1.00041e-010 1.90862e-010 2.54823e-011
25
root  72.145 40.486 -2.50886 -161.487 -87.8661 161.206
RightUpLeg  1.6389 -8.83064 -8.19866
RightLeg  2.42035 -0.166885 2.71703
RightFoot  -1.78716 -0.165818 1.85183
RightToes  1.74622e-010 0 -3.6325e-017
Spine  -2.00476 -0.794708 1.55812
Spine1  12.2344 -0.513094 -1.331
HEad  2.86915 4.95457 -3.52581
LeftShoulder1  7.42421 -10.8446 -45.0837
LeftArm  -11.5407 13.8966 -21.8298
LeftForeArm  21.0597 -18.9157 -3.76368
LeftHand  -0.244104 0.0205437 5.32207
RightShoulder  6.08644 9.45109 40.7976
RightArm  -9.91024 -10.9331 28.2634
RightForeArm  3.77267 11.0824 6.37781
RightHand  -0.332873 -0.668503 -8.15587
LeftUpLeg  1.86734 5.429 3.42536
LeftLeg  2.2233 9.65369 -3.81692
LeftFoot  -3.01503 0.0137078 0.0542612
LeftToes  1.00041e-010 1.90862e-010 2.54823e-011
26
root  72.1181 40.4841 -2.445 -163.289 -87.6474 163.161
RightUpLeg  1.49804 -8.83648 -8.25793
RightLeg  2.3333 0.135505 2.69958
RightFoot  -1.73695 -0.170431 1.88694
RightToes  1.74622e-010 0 -3.6325e-017
Spine  -2.35846 -0.816783 1.23849
Spine1  12.6144 -0.649975 -0.938618
HEad  4.13463 5.59818 -3.95427
LeftShoulder1  7.69527 -10.9667 -46.377
LeftArm  -10.0719 14.4622 -26.6301
LeftForeArm  22.2476 -17.8673 -3.98607
LeftHand  -0.244104 0.0205437 5.32207
RightShoulder  6.47141 9.81059 42.3154
RightArm  -10.4246 -11.1999 33.2466
RightForeArm  4.45632 8.38738 6.67368
RightHand  -0.258652 -1.26017 -7.17053
LeftUpLeg  1.73226 5.4398 3.33565
LeftLeg  2.31769 9.90851 -3.84523
LeftFoot  -3.10363 0.00622391 0.17522
LeftToes  1.00041e-010 1.90862e-010 2.54823e-011
27
root  72.0922 40.4784 -2.34734 -165.584 -87.3745 165.383
RightUpLeg  1.65119 -8.89239 -8.42469
RightLeg  2.13178 0.553004 2.70961
RightFoot  -1.66159 -0.192457 2.13777
RightToes  1.74622e-010 0 -3.6325e-017
Spine  -2.36186 -0.867528 1.08498
Spine1  12.9875 -0.80311 -0.644264
HEad  4.93332 6.03998 -4.51656
LeftShoulder1  8.03557 -11.1125 -47.9736
LeftArm  -9.84911 15.4846 -30.859
LeftForeArm  23.0004 -17.9421 -4.01656
LeftHand  -0.244104 0.0205437 5.32207
RightShoulder  6.78146 10.1166 43.4151
RightArm  -10.6925 -11.7645 36.4604
RightForeArm  0.502123 7.48894 7.0228
RightHand  -0.230884 -1.88981 -7.4113
LeftUpLeg  1.81146 5.33823 3.14332
LeftLeg  2.47475 10.2706 -3.72938
LeftFoot  -3.32016 0.00275941 0.244673
LeftToes  1.00041e-010 1.90862e-010 2.54823e-011
